PathFileType	4	(X/Y/Z)	/Users/itak/Documents/Research/Walk-IL/dataset/trc/00258_00009.trc
DataRate	CameraRate	NumFrames	NumMarkers	Units	OrigDataRate	OrigDataStartFrame	OrigNumFrames
100.000000	100.000000	4	53	mm	100.000000	0	517
Frame#	Time	LPSI			L3			STRN			T10			C7			CLAV			RBAK			LBAK			LSHO			LUPA			LAEL			LAOL			LWTS			LWPS			LFRA			LIFD			LHPS			LHTS			RSHO			RUPA			RAEL			RAOL			RWTS			RWPS			RFRA			RIFD			RHTS			RHPS			RBHD			LFHD			RFHD			LBHD			LHIP			RHIP			RASI			LASI			LKNE			LTHI			LANK			LTIP			LTOE			LMT1			LMT5			LHEE			RKNE			RTHI			RANK			RTIP			RTOE			RMT1			RMT5			RHEE			RPSI			
		X1	Y1	Z1	X2	Y2	Z2	X3	Y3	Z3	X4	Y4	Z4	X5	Y5	Z5	X6	Y6	Z6	X7	Y7	Z7	X8	Y8	Z8	X9	Y9	Z9	X10	Y10	Z10	X11	Y11	Z11	X12	Y12	Z12	X13	Y13	Z13	X14	Y14	Z14	X15	Y15	Z15	X16	Y16	Z16	X17	Y17	Z17	X18	Y18	Z18	X19	Y19	Z19	X20	Y20	Z20	X21	Y21	Z21	X22	Y22	Z22	X23	Y23	Z23	X24	Y24	Z24	X25	Y25	Z25	X26	Y26	Z26	X27	Y27	Z27	X28	Y28	Z28	X29	Y29	Z29	X30	Y30	Z30	X31	Y31	Z31	X32	Y32	Z32	X33	Y33	Z33	X34	Y34	Z34	X35	Y35	Z35	X36	Y36	Z36	X37	Y37	Z37	X38	Y38	Z38	X39	Y39	Z39	X40	Y40	Z40	X41	Y41	Z41	X42	Y42	Z42	X43	Y43	Z43	X44	Y44	Z44	X45	Y45	Z45	X46	Y46	Z46	X47	Y47	Z47	X48	Y48	Z48	X49	Y49	Z49	X50	Y50	Z50	X51	Y51	Z51	X52	Y52	Z52	X53	Y53	Z53	

1	0	-1408.656616210938	1060.137817382812	556.4161987304688	-1416.85107421875	1131.756958007812	597.0328369140625	-1178.286865234375	1328.6298828125	609.1966552734375	-1425.503051757812	1254.276489257812	601.51806640625	-1380.589233398438	1518.947143554688	598.1304321289062	-1210.030151367188	1444.93408203125	609.5591430664062	-1450.641723632812	1375.745727539062	667.5092163085938	-1394.291381835938	1480.839721679688	488.1847839355469	-1303.774047851562	1486.929077148438	436.3059997558594	-1328.465087890625	1368.837036132812	355.1912231445312	-1308.8203125	1159.371337890625	325.4867553710938	-1378.368286132812	1139.667724609375	375.1768493652344	-1204.628784179688	928.7239990234375	378.4500427246094	-1231.011352539062	912.5792236328125	299.55859375	-1281.91796875	1053.40625	310.240966796875	-1214.961303710938	756.759521484375	379.9136657714844	-1210.787719726562	824.513427734375	302.8557739257812	-1165.892578125	830.1118774414062	354.7769165039062	-1332.811279296875	1485.464721679688	770.430419921875	-1355.302856445312	1422.24169921875	837.409423828125	-1370.760864257812	1141.9208984375	882.6783447265625	-1393.676391601562	1134.221801757812	790.1867065429688	-1225.1640625	929.6192626953125	852.275146484375	-1281.787109375	914.5001831054688	914.1765747070312	-1342.179443359375	1074.0439453125	898.468505859375	-1208.455078125	737.39892578125	845.906494140625	-1183.302490234375	809.6490478515625	871.604248046875	-1239.121704101562	807.7562866210938	918.57177734375	-1354.851318359375	1674.577758789062	645.661376953125	-1150.511596679688	1735.357543945312	566.8919677734375	-1158.552856445312	1734.383178710938	665.94970703125	-1299.751098632812	1685.5068359375	516.3568115234375	-1301.106567382812	992.3247680664062	421.2775268554688	-1326.38525390625	1013.760803222656	787.1173095703125	-1225.85546875	1053.955810546875	757.2473754882812	-1204.159057617188	1033.248657226562	476.3250732421875	-1294.237182617188	505.7751159667969	484.5219421386719	-1287.030883789062	648.5684204101562	446.9315490722656	-1375.884887695312	39.49837112426758	514.1026000976562	-1344.089233398438	283.0689086914062	486.4353637695312	-1162.94873046875	46.83543395996094	579.7083129882812	-1233.666137695312	37.87215805053711	620.0179443359375	-1245.48193359375	42.70692825317383	505.3956909179688	-1440.548461914062	42.40271759033203	565.033447265625	-1314.090209960938	519.5172729492188	759.1644897460938	-1275.4267578125	786.6002807617188	800.3648681640625	-1398.207885742188	41.05432510375977	739.1747436523438	-1315.004760742188	403.9772033691406	745.0132446289062	-1184.780639648438	49.39009094238281	709.1261596679688	-1238.753662109375	43.8659782409668	661.5974731445312	-1290.349975585938	41.91070556640625	771.2376708984375	-1458.324462890625	39.02667236328125	677.216552734375	-1416.204833984375	1056.87255859375	676.0513305664062	
2	0.01	-1408.825927734375	1060.135131835938	556.3394165039062	-1416.925048828125	1131.730102539062	596.9922485351562	-1178.396362304688	1328.624877929688	609.0849609375	-1425.683349609375	1254.244384765625	601.4077758789062	-1380.655029296875	1518.931518554688	598.03662109375	-1210.02294921875	1444.961547851562	609.4017333984375	-1450.7001953125	1375.757690429688	667.4599609375	-1394.378295898438	1480.82421875	488.0727233886719	-1303.82080078125	1486.910400390625	436.1955261230469	-1328.355712890625	1368.796142578125	355.0672912597656	-1308.326904296875	1159.390625	325.3316040039062	-1377.84814453125	1139.503051757812	374.9527282714844	-1202.915283203125	929.4730224609375	378.8839111328125	-1229.089233398438	912.9652709960938	300.0434875488281	-1280.857543945312	1053.49951171875	310.3280334472656	-1211.78515625	757.4996948242188	380.7786560058594	-1208.067749023438	825.0260620117188	303.6221923828125	-1163.317016601562	831.1519165039062	355.4880065917969	-1332.800903320312	1485.469604492188	770.2855834960938	-1355.2744140625	1422.257446289062	837.33203125	-1370.40625	1141.915161132812	882.6849365234375	-1393.458129882812	1134.15576171875	790.234375	-1224.338134765625	929.9707641601562	851.9994506835938	-1280.845947265625	914.6161499023438	913.8942260742188	-1341.634521484375	1074.037841796875	898.3222045898438	-1207.30419921875	737.7659912109375	845.5588989257812	-1182.356201171875	810.0437622070312	871.2304077148438	-1238.012084960938	808.035400390625	918.2528076171875	-1354.690795898438	1674.601928710938	645.591796875	-1150.400268554688	1735.204345703125	566.6171264648438	-1158.41845703125	1734.25341796875	665.7573852539062	-1299.744750976562	1685.502807617188	516.2431030273438	-1301.411743164062	992.3713989257812	421.0463256835938	-1326.20556640625	1013.764892578125	787.077880859375	-1225.765014648438	1053.967041015625	757.016845703125	-1204.426025390625	1033.308471679688	476.0942687988281	-1294.132934570312	505.8063354492188	484.4538269042969	-1287.048706054688	648.587646484375	446.8179931640625	-1375.889038085938	39.49976348876953	514.1107177734375	-1344.07421875	283.063720703125	486.4221801757812	-1162.960083007812	46.84856033325195	579.7051391601562	-1233.669555664062	37.87101364135742	620.0197143554688	-1245.497924804688	42.71249008178711	505.4079284667969	-1440.54833984375	42.39266586303711	565.0414428710938	-1313.959350585938	519.4794311523438	758.9902954101562	-1275.29150390625	786.595703125	800.20263671875	-1398.214599609375	41.0455436706543	739.16845703125	-1314.959838867188	403.9690246582031	744.9500122070312	-1184.779296875	49.39259338378906	709.124267578125	-1238.757446289062	43.86049652099609	661.5924072265625	-1290.346069335938	41.916015625	771.2349243164062	-1458.318481445312	39.01144790649414	677.2069702148438	-1416.224853515625	1056.802001953125	676.02001953125	
3	0.02	-1409.027221679688	1060.11865234375	556.2411499023438	-1417.017333984375	1131.692138671875	596.9359741210938	-1178.541015625	1328.612426757812	608.9488525390625	-1425.896728515625	1254.2177734375	601.2620239257812	-1380.719482421875	1518.911010742188	597.8965454101562	-1210.023559570312	1444.987548828125	609.206298828125	-1450.775390625	1375.779541015625	667.379638671875	-1394.476684570312	1480.800170898438	487.9111022949219	-1303.856811523438	1486.878540039062	436.04541015625	-1328.195434570312	1368.740478515625	354.8966979980469	-1307.71630859375	1159.404052734375	325.1548461914062	-1377.216430664062	1139.288818359375	374.6644592285156	-1200.805053710938	930.4252319335938	379.4694519042969	-1226.7080078125	913.4365234375	300.6730651855469	-1279.5576171875	1053.608154296875	310.4469909667969	-1207.855102539062	758.4476928710938	381.8939819335938	-1204.72119140625	825.6779174804688	304.6040344238281	-1160.146484375	832.45849609375	356.4083862304688	-1332.79052734375	1485.47998046875	770.0982055664062	-1355.233276367188	1422.28662109375	837.2241821289062	-1369.947021484375	1141.903686523438	882.6690063476562	-1393.172607421875	1134.073852539062	790.2816162109375	-1223.315551757812	930.4033813476562	851.6346435546875	-1279.684936523438	914.741455078125	913.5175170898438	-1340.9482421875	1074.03759765625	898.1200561523438	-1205.818725585938	738.237548828125	845.1237182617188	-1181.121215820312	810.5457153320312	870.7417602539062	-1236.626342773438	808.3722534179688	917.832763671875	-1354.485961914062	1674.62109375	645.5003662109375	-1150.255615234375	1735.0068359375	566.2522583007812	-1158.220092773438	1734.087890625	665.4853515625	-1299.737426757812	1685.489379882812	516.095458984375	-1301.760620117188	992.4172973632812	420.78076171875	-1325.951171875	1013.762145996094	787.016357421875	-1225.647827148438	1053.968505859375	756.7342529296875	-1204.747314453125	1033.368774414062	475.808349609375	-1293.992553710938	505.8477172851562	484.3672180175781	-1287.068969726562	648.6094970703125	446.6756286621094	-1375.894287109375	39.50239944458008	514.1190185546875	-1344.047607421875	283.0560302734375	486.4075622558594	-1162.974731445312	46.86432266235352	579.7030639648438	-1233.673950195312	37.87232971191406	620.0261840820312	-1245.518920898438	42.72198486328125	505.4264831542969	-1440.54931640625	42.38041687011719	565.049072265625	-1313.815673828125	519.4440307617188	758.7940673828125	-1275.12060546875	786.5906372070312	799.9955444335938	-1398.2216796875	41.03569412231445	739.1630249023438	-1314.904541015625	403.9632873535156	744.8660278320312	-1184.778930664062	49.39502334594727	709.1201782226562	-1238.761474609375	43.85424423217773	661.5857543945312	-1290.342651367188	41.92202377319336	771.2316284179688	-1458.313110351562	38.99360656738281	677.1965942382812	-1416.242309570312	1056.709838867188	675.9793090820312	
4	0.03	-1409.246459960938	1060.081176757812	556.1243896484375	-1417.123413085938	1131.643432617188	596.8633422851562	-1178.716918945312	1328.589477539062	608.793701171875	-1426.128540039062	1254.204345703125	601.08447265625	-1380.771606445312	1518.887573242188	597.7044677734375	-1210.033569335938	1445.006469726562	608.9810180664062	-1450.86328125	1375.8134765625	667.2626953125	-1394.576538085938	1480.76708984375	487.696044921875	-1303.87060546875	1486.830932617188	435.8561706542969	-1327.980834960938	1368.671264648438	354.6797790527344	-1307.017578125	1159.404907226562	324.9693908691406	-1376.514892578125	1139.035034179688	374.3185729980469	-1198.411987304688	931.54150390625	380.1997680664062	-1223.98388671875	913.9703979492188	301.4335327148438	-1278.084716796875	1053.722290039062	310.5977478027344	-1203.363037109375	759.5730590820312	383.2345581054688	-1200.9169921875	826.443603515625	305.775146484375	-1156.541625976562	833.9779663085938	357.5155334472656	-1332.780517578125	1485.497680664062	769.873291015625	-1355.176879882812	1422.3310546875	837.084716796875	-1369.3984375	1141.884887695312	882.6190185546875	-1392.828125	1133.9833984375	790.3165283203125	-1222.14599609375	930.89501953125	851.1859741210938	-1278.363647460938	914.86669921875	913.0546875	-1340.144897460938	1074.045654296875	897.864013671875	-1204.070068359375	738.792724609375	844.6085205078125	-1179.635009765625	811.1354370117188	870.1492919921875	-1235.026000976562	808.7477416992188	917.3193969726562	-1354.241455078125	1674.630249023438	645.386474609375	-1150.08154296875	1734.771606445312	565.8028564453125	-1157.952026367188	1733.892944335938	665.1299438476562	-1299.727172851562	1685.462524414062	515.915771484375	-1302.121337890625	992.4548950195312	420.5050048828125	-1325.618530273438	1013.748718261719	786.92724609375	-1225.509765625	1053.95361328125	756.4152221679688	-1205.0966796875	1033.42236328125	475.4804077148438	-1293.819091796875	505.8980407714844	484.2653503417969	-1287.087280273438	648.6321411132812	446.5106201171875	-1375.90087890625	39.50609970092773	514.1267700195312	-1344.006591796875	283.0460510253906	486.392333984375	-1162.991577148438	46.88181304931641	579.7025756835938	-1233.679931640625	37.87715911865234	620.0390014648438	-1245.544067382812	42.73614120483398	505.4519653320312	-1440.5517578125	42.36678314208984	565.055419921875	-1313.66845703125	519.4169921875	758.5909423828125	-1274.918701171875	786.5867309570312	799.7492065429688	-1398.228393554688	41.02580261230469	739.1591186523438	-1314.84033203125	403.9619445800781	744.7625732421875	-1184.779296875	49.39649200439453	709.1130981445312	-1238.765625	43.84764862060547	661.5778198242188	-1290.340087890625	41.92845916748047	771.22802734375	-1458.309814453125	38.97463989257812	677.1867065429688	-1416.25244140625	1056.597900390625	675.9280395507812	
